# xmcd
#
# Track frame offsets:
#	150
#	14305
#	27440
#	40815
#	81975
#	93652
#	105570
#	116322
#	129132
#	143092
#	154677
#	169042
#	183327
#	196152
#	209880
#	222195
#
# Disc length: 3132 seconds
#
# Revision: 3
# Processed by: cddbd v1.5.2PL0 Copyright (c) Steve Scherf et al.
# Submitted via: EasyCDDAExtractor 16.0.6.1
#
DISCID=d50c3a10
DTITLE=Varios - Kings Of The Blues
DYEAR=1992
DGENRE=Blues
TTITLE0=Muddy Waters - Rollin' Stone
TTITLE1=Elmore James -  Dust My Broom
TTITLE2=John Lee Hooker  - One Bourbon,One Scotch,One Beer
TTITLE3=Albert King -  I Got The Blues
TTITLE4=Sonny Boy Williamson - Bring It On Home
TTITLE5=Buddy Guy - Ten Years Ago
TTITLE6=Jimmy Reed - Baby What You Want Me To Do
TTITLE7=T-Bone Walker - Stormy Monday Blues
TTITLE8=Howlin' Wolf - Smokestack Lightning
TTITLE9=Little Walter - My Babe
TTITLE10=Otis Rush - So Many Roads
TTITLE11=Lowell Fulson - Reconsider Baby
TTITLE12=Desconocido - I Love To Love My Baby
TTITLE13=Desconocido - Guess I'm A Fool Falling In Love With You
TTITLE14=Desconocido - I'm In Love With You Baby
TTITLE15=Desconocido - Baby Don't You Hear Me Calling You
EXTD=
EXTT0=
EXTT1=
EXTT2=
EXTT3=
EXTT4=
EXTT5=
EXTT6=
EXTT7=
EXTT8=
EXTT9=
EXTT10=
EXTT11=
EXTT12=
EXTT13=
EXTT14=
EXTT15=
PLAYORDER=
